<?xml version="1.0" standalone="no"?>
<!DOCTYPE svg PUBLIC "-//W3C//DTD SVG 20010904//EN"
 "http://www.w3.org/TR/2001/REC-SVG-20010904/DTD/svg10.dtd">
<svg version="1.0" xmlns="http://www.w3.org/2000/svg"
 width="493.000000pt" height="493.000000pt" viewBox="0 0 493.000000 493.000000"
 preserveAspectRatio="xMidYMid meet">
<metadata>
Created by potrace 1.11, written by Peter Selinger 2001-2013
</metadata>
<g transform="translate(0.000000,493.000000) scale(0.100000,-0.100000)"
fill="#000000" stroke="none">
<path d="M2610 4919 c-30 -3 -82 -10 -115 -14 -66 -8 -88 -12 -113 -19 -9 -3
-33 -7 -52 -10 -64 -10 -247 -65 -352 -106 -228 -91 -488 -248 -668 -405 -49
-42 -218 -212 -261 -261 -71 -82 -239 -323 -239 -343 0 -5 -6 -16 -14 -24 -19
-19 -125 -241 -169 -353 -49 -125 -104 -325 -121 -438 -4 -21 -8 -48 -11 -60
-32 -146 -38 -549 -11 -761 12 -90 21 -146 31 -195 3 -14 7 -34 9 -45 9 -47
38 -147 70 -245 253 -771 875 -1364 1634 -1561 64 -17 131 -32 147 -34 17 -3
39 -6 50 -9 11 -2 45 -7 75 -11 30 -4 69 -10 85 -12 52 -7 448 -8 503 0 28 4
76 10 105 13 28 3 59 8 67 10 8 3 33 8 55 11 85 11 286 69 410 119 247 98 587
314 666 423 54 75 53 47 54 996 0 656 -2 894 -12 933 -25 113 -118 206 -224
228 -19 4 -311 8 -649 9 -725 1 -719 2 -818 -89 -59 -54 -77 -100 -77 -196 0
-75 3 -91 27 -131 46 -78 132 -136 217 -146 20 -2 235 -5 478 -5 l441 -1 0
-643 0 -643 -33 -26 c-36 -27 -179 -102 -280 -147 -92 -41 -252 -89 -375 -113
-152 -30 -413 -34 -555 -9 -16 3 -41 7 -55 9 -116 15 -325 89 -470 167 -376
199 -656 514 -840 943 -42 99 -102 317 -115 415 -3 25 -9 77 -14 115 -9 71 -7
410 2 455 3 14 8 43 11 65 40 314 205 683 422 945 287 346 696 572 1119 619
77 8 429 7 470 -2 11 -3 40 -8 65 -11 72 -11 224 -48 235 -57 5 -5 15 -9 23
-9 27 0 202 -91 295 -153 51 -34 132 -93 180 -132 107 -85 159 -107 252 -108
118 -1 224 63 273 165 31 64 27 206 -8 268 -55 97 -379 326 -626 441 -170 80
-399 144 -584 164 -36 4 -74 9 -85 12 -35 8 -467 10 -525 2z"/>
<path d="M1815 2876 c-68 -17 -112 -39 -170 -87 -244 -199 -195 -570 92 -711
64 -31 74 -33 178 -33 105 0 114 2 178 33 67 33 187 140 187 167 0 7 6 18 14
24 33 28 58 196 42 281 -13 68 -64 160 -120 214 -108 107 -256 148 -401 112z"/>
</g>
</svg>
