<svg xmlns="http://www.w3.org/2000/svg" xmlns:xlink="http://www.w3.org/1999/xlink" version="1.1" x="0px" y="0px" viewBox="0 0 48 60" enable-background="new 0 0 48 48" xml:space="preserve"><g><path fill="#000000" d="M24,5.4c-2.7,0-4.9,2.2-4.9,4.9s2.2,4.9,4.9,4.9s4.9-2.2,4.9-4.9S26.7,5.4,24,5.4z"/><path fill="#000000" d="M38.7,15.1c-2.7,0-4.9,2.2-4.9,4.9s2.2,4.9,4.9,4.9s4.9-2.2,4.9-4.9S41.4,15.1,38.7,15.1z"/><path fill="#000000" d="M9.3,15.1c-2.7,0-4.9,2.2-4.9,4.9s2.2,4.9,4.9,4.9c2.7,0,4.9-2.2,4.9-4.9S12,15.1,9.3,15.1z"/><path fill="#000000" d="M24,29.4c-8.4,0-14.2,3-14.2,5.7c0,2.7,5.8,5.7,14.2,5.7s14.2-3,14.2-5.7C38.2,32.4,32.4,29.4,24,29.4z"/><path fill="#000000" d="M7.8,35.1c0-2.5,2.5-4.7,6.3-6.1c-1.4-1.4-3.1-2.1-4.8-2.1c-4.9,0-8.8,5.8-8.8,12.9c0,0.1,0,0.2,0,0.3   l0,0.1c0,0.4,0.3,0.8,0.6,0.9c2.5,1,5.3,1.5,8.2,1.5c2.2,0,4.3-0.3,6.4-0.9C11,40.4,7.8,37.9,7.8,35.1z"/><path fill="#000000" d="M24,27.4c3.3,0,6.2,0.4,8.8,1.2c-0.5-6.5-4.2-11.5-8.8-11.5s-8.3,5-8.8,11.5C17.8,27.8,20.7,27.4,24,27.4z"/><path fill="#000000" d="M38.7,26.8c-1.7,0-3.4,0.7-4.8,2.1c3.9,1.4,6.3,3.6,6.3,6.1c0,2.9-3.1,5.3-7.9,6.6c2.1,0.6,4.2,0.9,6.4,0.9   c2.9,0,5.7-0.5,8.2-1.5c0.4-0.1,0.6-0.5,0.6-0.9l0-0.1c0-0.1,0-0.2,0-0.3C47.5,32.7,43.5,26.8,38.7,26.8z"/></g><text x="0" y="63" fill="#000000" font-size="5px" font-weight="bold" font-family="'Helvetica Neue', Helvetica, Arial-Unicode, Arial, Sans-serif">Created by Creative Stall</text><text x="0" y="68" fill="#000000" font-size="5px" font-weight="bold" font-family="'Helvetica Neue', Helvetica, Arial-Unicode, Arial, Sans-serif">from the Noun Project</text></svg>